<svg xmlns="http://www.w3.org/2000/svg" viewBox="0 0 24 24"><path fill="#110638" d="M12 3c-.827 0-1.5-.673-1.5-1.5S11.173 0 12 0s1.5.673 1.5 1.5S12.827 3 12 3zm0-2a.5.5 0 1 0 .002 1.002A.5.5 0 0 0 12 1zm0 23c-.827 0-1.5-.673-1.5-1.5S11.173 21 12 21s1.5.673 1.5 1.5S12.827 24 12 24zm0-2a.5.5 0 1 0 .002 1.002A.5.5 0 0 0 12 22zm10.5-8.5c-.827 0-1.5-.673-1.5-1.5s.673-1.5 1.5-1.5 1.5.673 1.5 1.5-.673 1.5-1.5 1.5zm0-2a.5.5 0 1 0 .002 1.002.5.5 0 0 0-.002-1.002zm-3.075-5.426a1.498 1.498 0 0 1-1.061-2.56 1.501 1.501 0 0 1 2.121 2.122 1.494 1.494 0 0 1-1.06.438zm0-1.998a.502.502 0 0 0-.354.854.5.5 0 1 0 .354-.854zm0 16.848c-.384 0-.769-.146-1.061-.438a1.502 1.502 0 0 1 0-2.122 1.504 1.504 0 0 1 2.121 0 1.502 1.502 0 0 1 0 2.122 1.494 1.494 0 0 1-1.06.438zm0-1.999a.5.5 0 1 0 0 .999.5.5 0 0 0 0-.999z"/><path fill="#110638" d="M22.12 11.58a.502.502 0 0 1-.462-.308l-2.32-5.58a.5.5 0 0 1 .924-.384l2.32 5.58a.502.502 0 0 1-.462.692zM19.8 19a.502.502 0 0 1-.462-.692l2.32-5.58a.5.5 0 0 1 .924.384l-2.32 5.58A.502.502 0 0 1 19.8 19zM1.5 13.5C.673 13.5 0 12.827 0 12s.673-1.5 1.5-1.5S3 11.173 3 12s-.673 1.5-1.5 1.5zm0-2a.5.5 0 1 0 .002 1.002A.5.5 0 0 0 1.5 11.5zm3.075 9.424c-.384 0-.769-.146-1.061-.438a1.502 1.502 0 0 1 0-2.122 1.504 1.504 0 0 1 2.121 0 1.502 1.502 0 0 1 0 2.122 1.493 1.493 0 0 1-1.06.438zm0-1.999a.5.5 0 1 0 0 .999.5.5 0 0 0 0-.999zm0-12.851c-.384 0-.768-.146-1.061-.438a1.501 1.501 0 1 1 2.122.001 1.5 1.5 0 0 1-1.061.437zm-.353-1.145a.5.5 0 1 0 .706-.707.5.5 0 0 0-.706.707z"/><path fill="#110638" d="M1.88 11.58a.502.502 0 0 1-.462-.692l2.32-5.58a.5.5 0 1 1 .924.384l-2.32 5.58a.502.502 0 0 1-.462.308zM4.2 19a.502.502 0 0 1-.462-.308l-2.32-5.58a.501.501 0 0 1 .924-.384l2.32 5.58A.502.502 0 0 1 4.2 19zM5.5 4.7a.502.502 0 0 1-.192-.962l5.58-2.32a.501.501 0 0 1 .384.924l-5.58 2.32A.502.502 0 0 1 5.5 4.7zm13 0a.502.502 0 0 1-.192-.038l-5.58-2.32a.501.501 0 0 1 .384-.924l5.58 2.32a.501.501 0 0 1-.192.962zm-5.58 17.92a.502.502 0 0 1-.192-.962l5.58-2.32a.502.502 0 0 1 .654.27.502.502 0 0 1-.27.654l-5.58 2.32a.502.502 0 0 1-.192.038zm-1.84 0a.502.502 0 0 1-.192-.038l-5.58-2.32a.501.501 0 0 1 .384-.924l5.58 2.32a.501.501 0 0 1-.192.962z"/><path fill="#FCC34A" d="M12 19c-3.859 0-7-3.14-7-7s3.141-7 7-7 7 3.14 7 7-3.141 7-7 7z"/><path fill="#110638" d="M12 15a.5.5 0 0 1-.5-.5V11a1.001 1.001 0 0 0-2 0v3.5a.5.5 0 0 1-1 0V11c0-1.103.897-2 2-2s2 .897 2 2v3.5a.5.5 0 0 1-.5.5z"/><path fill="#110638" d="M12 13H9a.5.5 0 0 1 0-1h3a.5.5 0 0 1 0 1zm3 2a.5.5 0 0 1-.5-.5v-5a.5.5 0 0 1 1 0v5a.5.5 0 0 1-.5.5z"/></svg>