<svg xmlns="http://www.w3.org/2000/svg" fill-rule="evenodd" stroke-linejoin="round" stroke-miterlimit="2" clip-rule="evenodd" viewBox="0 0 256 256"><g transform="translate(-306)"><rect width="256" height="256" x="306" fill="none"/><path fill="#ffce00" d="M440.988,195.163L440.988,164.224L443.68,48C443.68,48 442.917,22.187 415,19C389.912,16.136 382.088,40.864 387,46C387,46 348.806,41.67 350.387,80.769L357.709,106.393L347.642,114.63C347.642,114.63 342.095,132.575 352.218,142.084C352.218,142.084 342.095,149.658 341.236,157.642C341.236,157.642 338.434,178.943 357.709,180.521C357.709,180.521 348.97,210.265 374.874,208.079C374.874,208.079 376.26,240.278 412.618,234.067C412.618,234.067 443.372,230.802 440.988,195.163Z" transform="translate(-47.873 -10.258) scale(1.09271)"/><path fill="none" d="M383.031,43.143C382.777,41.266 382.89,39.062 383.475,36.701C385.904,26.912 395.891,14.055 415.311,16.272C445.687,19.74 446.425,47.919 446.425,47.919L446.427,47.991C446.427,47.991 443.732,164.288 443.733,164.224L443.733,195.078C444.477,206.449 441.996,214.716 438.241,220.736C429.726,234.386 414.455,236.604 413.017,236.784C397.304,239.453 387.674,235.301 381.723,229.582C375.276,223.386 373.146,215.152 372.455,210.938C367.884,210.968 364.4,209.98 361.748,208.418C356.54,205.35 354.345,199.986 353.738,194.565C353.239,190.109 353.82,185.664 354.365,182.823C335.79,179.096 338.513,157.287 338.506,157.348C338.903,153.662 340.936,150.016 343.322,147.01C345.017,144.876 346.863,143.07 348.268,141.811C345.189,137.854 343.867,133.073 343.497,128.536C342.864,120.767 345.019,113.819 345.019,113.819L345.263,113.029L354.573,105.412L347.748,81.523L347.644,80.88C347.132,68.222 350.595,59.816 355.538,54.202C363.794,44.825 376.463,43.267 383.031,43.143ZM440.933,48.034C440.878,46.867 439.48,24.558 414.689,21.728C398.986,19.935 390.768,30.108 388.805,38.023C388.419,39.578 388.275,41.03 388.396,42.254C388.474,43.032 388.6,43.701 388.984,44.102L386.691,48.728C386.691,48.728 369.472,46.684 359.659,57.83C355.483,62.573 352.749,69.712 353.119,80.336L360.844,107.375L350.057,116.202C349.59,118.014 348.542,122.834 348.97,128.089C349.311,132.272 350.58,136.779 354.097,140.083L356.482,142.323L353.862,144.283C353.862,144.283 350.492,146.809 347.623,150.424C345.874,152.626 344.256,155.235 343.962,157.968L343.958,158C343.958,158 341.372,176.429 357.933,177.785L361.293,178.06L360.343,181.295C360.343,181.295 358.484,187.609 359.195,193.954C359.616,197.715 360.922,201.559 364.535,203.687C366.907,205.084 370.186,205.72 374.643,205.343L377.494,205.103L377.617,207.961C377.617,207.961 378.063,218.448 385.528,225.623C390.573,230.472 398.82,233.639 412.156,231.361L412.328,231.337C412.328,231.337 426.075,229.864 433.582,217.83C436.865,212.566 438.915,205.307 438.248,195.347L438.242,195.255L438.242,164.192L440.933,48.034Z" transform="translate(-47.873 -10.258) scale(1.09271)"/><path fill="#0097f1" d="M443.245,158.733L451.969,158.733L451.969,164.224L437.755,164.224L437.755,47.872L437.766,47.744C437.766,47.744 438.84,36.409 430.898,28.631C427.448,25.252 422.295,22.596 414.689,21.728C398.986,19.935 390.768,30.108 388.805,38.023C388.419,39.578 388.275,41.03 388.396,42.254C388.474,43.032 388.6,43.701 388.984,44.102L385.016,47.898C383.097,45.892 382.25,41.64 383.475,36.701C385.904,26.912 395.891,14.055 415.311,16.272C424.456,17.316 430.592,20.645 434.74,24.708C443.922,33.7 443.352,46.542 443.245,48.099L443.245,158.733Z" transform="translate(-47.873 -10.258) scale(1.09271)"/><path fill="#0097f1" d="M402.007,48.127C399.806,45.768 395.615,43.659 390.352,42.767C378.89,40.823 362.22,44.4 352.582,62.336C339.513,86.656 353.723,115.306 375.441,121.254L376.891,115.958C358.124,110.818 346.125,85.951 357.418,64.935C365.606,49.699 379.698,46.529 389.434,48.18C393.258,48.829 396.393,50.159 397.993,51.873L402.007,48.127Z" transform="translate(-47.873 -10.258) scale(1.09271)"/><path fill="#0097f1" d="M357.296,104.388C345.91,107.409 339.329,121.014 343.382,133.828C347.805,147.808 356.778,152.858 365.406,154.07L366.17,148.633C359.229,147.658 352.175,143.418 348.618,132.172C345.551,122.477 350.089,111.981 358.704,109.696L357.296,104.388Z" transform="translate(-47.873 -10.258) scale(1.09271)"/><path fill="#0097f1" d="M355.531,183.106C350.514,181.968 343.126,178.808 339.526,170.043C335.013,159.057 339.309,147.441 351.278,142.465L353.386,147.535C344.51,151.225 341.258,159.81 344.605,167.957C348.936,178.501 360.561,178.255 360.561,178.255L362.472,183.023C362.472,183.023 357.886,187.181 358.341,192.927C358.539,195.432 359.743,198.193 362.574,201.076C368.393,207.001 381.438,207.218 388.827,197.247L393.239,200.517C383.528,213.618 366.302,212.709 358.657,204.924C354.669,200.863 353.146,196.887 352.867,193.361C352.54,189.23 353.988,185.658 355.531,183.106Z" transform="translate(-47.873 -10.258) scale(1.09271)"/><path fill="#0097f1" d="M372.466,208.237C371.071,215.817 374.047,222.207 379.385,227.04C386.83,233.78 399.04,237.372 409.268,236.74C430.8,235.41 444.299,216.92 442.314,198.536C440.566,182.336 429.055,175.641 419.354,175.634C414.956,175.631 410.901,177.021 408.085,179.467L411.686,183.612C413.592,181.957 416.373,181.123 419.35,181.125C426.861,181.131 435.502,186.582 436.855,199.125C438.528,214.62 427.077,230.139 408.929,231.26C400.089,231.806 389.505,228.795 383.071,222.97C379.157,219.426 376.843,214.789 377.866,209.231L372.466,208.237Z" transform="translate(-47.566 -10.258) scale(1.09271)"/><path fill="#ee960b" d="M379.534,90.581C374.101,103.623 381.587,116.873 393.22,121.172C405.013,125.529 419.739,121.926 424.513,109.186L419.487,106.584C417.704,111.344 413.977,114.214 409.653,115.575C404.989,117.042 399.619,116.77 394.867,115.014C386.514,111.928 380.565,102.784 384.466,93.419L379.534,90.581Z" transform="matrix(1.06904 .22624 -.19246 .90944 -18.085 -94.85)"/><path fill="#ee960b" d="M382.702,171.511C382.126,168.333 382.977,165.108 384.794,162.335C389.329,155.414 399.753,151.352 410.782,156.812L413.218,151.891C399.169,144.936 385.978,150.51 380.201,159.326C377.599,163.297 376.474,167.937 377.298,172.489L382.702,171.511Z" transform="rotate(-15.789 335.549 315.139) scale(1.09271)"/><path fill="#0097f1" d="M414.198,172.002C418.255,168.179 423.866,167.446 429.161,169.355C436.497,172.001 443.245,179.852 443.245,191L437.755,191C437.755,182.575 432.843,176.52 427.298,174.521C424.005,173.333 420.487,173.62 417.964,175.998L414.198,172.002Z" transform="matrix(1.09271 0 0 -1.09271 -47.873 248.709)"/><path fill="#0097f1" d="M453.372,32L453.372,10.139L459.372,10.139L459.372,38L435.131,38L435.131,32L453.372,32Z" transform="translate(-1.664 9.113)"/><path fill="#0097f1" d="M134.095,97.874C116.014,97.874 101.334,112.554 101.334,130.636C101.334,148.717 116.014,163.397 134.095,163.397C152.177,163.397 166.857,148.717 166.857,130.636C166.857,112.554 152.177,97.874 134.095,97.874ZM134.095,120.236C139.835,120.236 144.495,124.896 144.495,130.636C144.495,136.375 139.835,141.035 134.095,141.035C128.356,141.035 123.696,136.375 123.696,130.636C123.696,124.896 128.356,120.236 134.095,120.236Z" transform="translate(418.857 -19.008) scale(.2683)"/><path fill="#0097f1" d="M134.095,97.874C116.014,97.874 101.334,112.554 101.334,130.636C101.334,148.717 116.014,163.397 134.095,163.397C152.177,163.397 166.857,148.717 166.857,130.636C166.857,112.554 152.177,97.874 134.095,97.874ZM134.095,120.236C139.835,120.236 144.495,124.896 144.495,130.636C144.495,136.375 139.835,141.035 134.095,141.035C128.356,141.035 123.696,136.375 123.696,130.636C123.696,124.896 128.356,120.236 134.095,120.236Z" transform="translate(479.357 15.063) scale(.2683)"/><path fill="#0097f1" d="M134.095,97.874C116.014,97.874 101.334,112.554 101.334,130.636C101.334,148.717 116.014,163.397 134.095,163.397C152.177,163.397 166.857,148.717 166.857,130.636C166.857,112.554 152.177,97.874 134.095,97.874ZM134.095,120.236C139.835,120.236 144.495,124.896 144.495,130.636C144.495,136.375 139.835,141.035 134.095,141.035C128.356,141.035 123.696,136.375 123.696,130.636C123.696,124.896 128.356,120.236 134.095,120.236Z" transform="translate(501.987 132.063) scale(.2683)"/><path fill="#0097f1" d="M134.095,97.874C116.014,97.874 101.334,112.554 101.334,130.636C101.334,148.717 116.014,163.397 134.095,163.397C152.177,163.397 166.857,148.717 166.857,130.636C166.857,112.554 152.177,97.874 134.095,97.874ZM134.095,120.236C139.835,120.236 144.495,124.896 144.495,130.636C144.495,136.375 139.835,141.035 134.095,141.035C128.356,141.035 123.696,136.375 123.696,130.636C123.696,124.896 128.356,120.236 134.095,120.236Z" transform="translate(450.987 204.063) scale(.2683)"/><path fill="#0097f1" d="M134.095,97.874C116.014,97.874 101.334,112.554 101.334,130.636C101.334,148.717 116.014,163.397 134.095,163.397C152.177,163.397 166.857,148.717 166.857,130.636C166.857,112.554 152.177,97.874 134.095,97.874ZM134.095,120.236C139.835,120.236 144.495,124.896 144.495,130.636C144.495,136.375 139.835,141.035 134.095,141.035C128.356,141.035 123.696,136.375 123.696,130.636C123.696,124.896 128.356,120.236 134.095,120.236Z" transform="translate(465.987 182.063) scale(.2683)"/><path fill="#0097f1" d="M134.095,97.874C116.014,97.874 101.334,112.554 101.334,130.636C101.334,148.717 116.014,163.397 134.095,163.397C152.177,163.397 166.857,148.717 166.857,130.636C166.857,112.554 152.177,97.874 134.095,97.874ZM134.095,120.236C139.835,120.236 144.495,124.896 144.495,130.636C144.495,136.375 139.835,141.035 134.095,141.035C128.356,141.035 123.696,136.375 123.696,130.636C123.696,124.896 128.356,120.236 134.095,120.236Z" transform="translate(493.987 100.063) scale(.2683)"/><path fill="#0097f1" d="M134.095,97.874C116.014,97.874 101.334,112.554 101.334,130.636C101.334,148.717 116.014,163.397 134.095,163.397C152.177,163.397 166.857,148.717 166.857,130.636C166.857,112.554 152.177,97.874 134.095,97.874ZM134.095,120.236C139.835,120.236 144.495,124.896 144.495,130.636C144.495,136.375 139.835,141.035 134.095,141.035C128.356,141.035 123.696,136.375 123.696,130.636C123.696,124.896 128.356,120.236 134.095,120.236Z" transform="translate(435.987 79.462) scale(.2683)"/><path fill="#0097f1" d="M134.095,97.874C116.014,97.874 101.334,112.554 101.334,130.636C101.334,148.717 116.014,163.397 134.095,163.397C152.177,163.397 166.857,148.717 166.857,130.636C166.857,112.554 152.177,97.874 134.095,97.874ZM134.095,120.236C139.835,120.236 144.495,124.896 144.495,130.636C144.495,136.375 139.835,141.035 134.095,141.035C128.356,141.035 123.696,136.375 123.696,130.636C123.696,124.896 128.356,120.236 134.095,120.236Z" transform="translate(490.407 44.101) scale(.2683)"/><path fill="#0097f1" d="M486 73L435.131 73 435.131 67 492 67 492 98 486 98 486 73zM468.566 163L492 163 492 169 462.566 169 462.566 146 435.189 146 435.189 140 468.566 140 468.566 163zM454 236L486 236 486 242 448 242 448 198 431.189 198 431.189 192 454 192 454 236zM472.091 34.57L496 34.57 496 28.57 472.091 28.57 472.091 34.57z" transform="translate(-1.664 .113)"/><path fill="#0097f1" d="M480.903 53L480.903 70 474.903 70 474.903 47 513 47 513 53 480.903 53zM435.594 118L466 118 466 112 435.594 112 435.594 118z" transform="translate(-1.664 .113)"/><path fill="#0097f1" d="M436.594,118L477,118L477,112L436.594,112L436.594,118Z" transform="translate(56.336 .113)"/><path fill="#0097f1" d="M435.189 95L452 95 452 89 435.189 89 435.189 95zM485.797 138L528.229 138 528.229 132 485.797 132 485.797 138z" transform="translate(-1.664 .113)"/><path fill="#0097f1" d="M511.513 164L534.63 164 534.63 170 505.513 170 505.513 135 511.513 135 511.513 164zM483 186L522 186 522 192 477 192 477 166 483 166 483 186zM499 213.807L466 213.807 466 219.807 499 219.807 499 213.807zM510.297 82.039L510.297 115 504.297 115 504.297 76.039 521.571 76.039 521.571 82.039 510.297 82.039z" transform="translate(-1.664 .113)"/></g></svg>